<svg xmlns="http://www.w3.org/2000/svg" width="135.851" height="35" viewBox="0 0 135.851 35">
  <g id="Grupo_254" data-name="Grupo 254" transform="translate(-219.149 -428)">
    <text id="afePath" transform="translate(246 456)" fill="#7127e8" font-size="29" font-family="FredokaOne-Regular, Fredoka One" letter-spacing="-0.026em"><tspan x="0" y="0">afe</tspan><tspan y="0" fill="#d86fd5">Path</tspan></text>
    <path id="path-bold-svgrepo-com" d="M25.532,62.437a5.54,5.54,0,0,1,5.214,3.687h7.8a4.3,4.3,0,1,0,0-8.6h-8.1a6.76,6.76,0,0,1,0-13.521h8.1a1.844,1.844,0,0,1,0,3.687h-8.1a3.073,3.073,0,0,0,0,6.146h8.1a7.989,7.989,0,0,1,0,15.979h-7.8a5.531,5.531,0,1,1-5.214-7.375Zm0,7.375a1.844,1.844,0,1,0-1.844-1.844,1.844,1.844,0,0,0,1.844,1.844Z" transform="translate(199.149 387.673)" fill="#7127e8"/>
  </g>
</svg>
